<svg xmlns="http://www.w3.org/2000/svg" viewBox="0 0 512.001 512.001" style="enable-background:new 0 0 512.001 512.001" xml:space="preserve"><path style="fill:#e0e0e0" d="M418.47 65.72v24.151c0 12.349-10.011 22.36-22.36 22.36s-22.36-10.011-22.36-22.36V65.72H107.118v24.15c0 12.349-10.011 22.36-22.36 22.36s-22.36-10.011-22.36-22.36V65.72H7.534v364.13h252.333c-8.324-17.582-12.781-37.351-12.254-58.215 1.738-68.779 58.189-124.376 126.986-125.119 39.187-.423 74.382 16.707 98.217 44.011V65.721l-54.346-.001z"/><path style="fill:#bfbfbf" d="M418.47 89.87c0 12.349-10.011 22.36-22.36 22.36s-22.36-10.011-22.36-22.36V65.72H107.118v24.15c0 12.349-10.011 22.36-22.36 22.36s-22.36-10.011-22.36-22.36V65.72H7.534v111.533h465.282V65.72h-54.345v24.15h-.001z"/><path style="fill:#ef3a47" d="M418.47 65.72v24.151c0 12.349-10.011 22.36-22.36 22.36s-22.36-10.011-22.36-22.36V65.72H107.118v24.15c0 12.349-10.011 22.36-22.36 22.36s-22.36-10.011-22.36-22.36V65.72H7.793v81.545h465.282V65.72H418.47z"/><path style="fill:#f2ca5a" d="M84.758 112.23c-12.349 0-22.36-10.011-22.36-22.36V30.96c0-12.349 10.011-22.36 22.36-22.36s22.36 10.011 22.36 22.36v58.91c0 12.349-10.012 22.36-22.36 22.36zM396.111 112.23c-12.349 0-22.36-10.011-22.36-22.36V30.96c0-12.349 10.011-22.36 22.36-22.36s22.36 10.011 22.36 22.36v58.91c-.001 12.349-10.012 22.36-22.36 22.36z"/><path style="fill:#ffae47" d="M84.758 82.095c-12.349 0-22.36-10.011-22.36-22.36V89.87c0 12.349 10.011 22.36 22.36 22.36s22.36-10.011 22.36-22.36V59.735c0 12.349-10.012 22.36-22.36 22.36zM396.111 82.095c-12.349 0-22.36-10.011-22.36-22.36V89.87c0 12.349 10.011 22.36 22.36 22.36s22.36-10.011 22.36-22.36V59.735c-.001 12.349-10.012 22.36-22.36 22.36z"/><circle style="fill:#ef3a47" cx="376.021" cy="374.957" r="128.444"/><path style="fill:#ce3043" d="M376.019 246.507c-5.098 0-10.124.306-15.067.884 63.838 7.46 113.381 61.722 113.381 127.563S424.79 495.057 360.952 502.518c4.943.578 9.97.884 15.067.884 70.94 0 128.448-57.508 128.448-128.448s-57.509-128.447-128.448-128.447z"/><path style="fill:#f2f2f2" d="M422.138 353.329h-25.975v-25.975a7.226 7.226 0 0 0-7.226-7.226h-25.836a7.226 7.226 0 0 0-7.226 7.226v25.975H329.9a7.226 7.226 0 0 0-7.226 7.226v25.836a7.226 7.226 0 0 0 7.226 7.226h25.975v25.975a7.226 7.226 0 0 0 7.226 7.226h25.836a7.226 7.226 0 0 0 7.226-7.226v-25.975h25.975a7.225 7.225 0 0 0 7.225-7.226v-25.836a7.224 7.224 0 0 0-7.225-7.226z"/><path style="fill:#565656" d="M82.75 197.966h48.537v48.537H82.75zM171.688 197.966h48.537v48.537h-48.537zM260.635 197.966h48.537v48.537h-48.537zM349.583 197.966h48.537v48.537h-48.537zM82.75 302.172h48.537v48.537H82.75zM171.688 302.172h48.537v48.537h-48.537z"/><path style="fill:#ce3043" d="M7.793 117.125h465.28v30.135H7.793z"/><path d="M480.349 287.845V149.196a7.511 7.511 0 0 0 .259-1.932V65.72a7.533 7.533 0 0 0-7.534-7.534h-47.07V30.96c0-16.483-13.411-29.894-29.894-29.894-16.484 0-29.894 13.411-29.894 29.894v27.226H193.953a7.533 7.533 0 0 0-7.534 7.534 7.533 7.533 0 0 0 7.534 7.534H366.217V89.87c0 16.483 13.411 29.894 29.894 29.894 16.484 0 29.894-13.411 29.894-29.894V73.253h39.278v66.477h-91.531c-4.161 0-7.534 3.372-7.534 7.534s3.373 7.534 7.534 7.534h91.53v117.579a135.808 135.808 0 0 0-39.321-23.902l-.522-.203c-.757-.295-1.516-.586-2.277-.868-.419-.155-.84-.305-1.26-.457a123.599 123.599 0 0 0-3.284-1.132 134.353 134.353 0 0 0-6.31-1.917l-.107-.029a134.6 134.6 0 0 0-6.547-1.633v-44.268a7.533 7.533 0 0 0-7.534-7.534h-48.54a7.533 7.533 0 0 0-7.534 7.534v45.302c-39.732 10.256-72.475 38.07-89.445 74.633a131.29 131.29 0 0 0-1.205 2.675c-.091.208-.184.416-.274.626-.307.711-.607 1.425-.902 2.143-.139.336-.276.67-.412 1.007a141.868 141.868 0 0 0-2.37 6.342 145.878 145.878 0 0 0-1.475 4.528 139.207 139.207 0 0 0-.916 3.124c-.185.66-.364 1.322-.538 1.985-.104.397-.209.794-.309 1.191-.174.684-.341 1.37-.503 2.057-.091.386-.183.77-.271 1.157-.161.705-.313 1.412-.463 2.12-.079.375-.159.749-.235 1.126a143.17 143.17 0 0 0-.417 2.17c-.068.371-.139.74-.205 1.112-.13.735-.25 1.474-.368 2.212-.058.365-.119.727-.174 1.093-.114.754-.217 1.512-.318 2.269-.047.354-.098.705-.143 1.06-.097.778-.184 1.56-.268 2.341-.036.339-.077.675-.111 1.014a141.15 141.15 0 0 0-.218 2.451c-.025.308-.056.616-.079.924-.067.899-.122 1.8-.172 2.701-.013.231-.031.462-.042.693a143.62 143.62 0 0 0-.131 3.419v.04a143.006 143.006 0 0 0-.043 3.399l-.001.07c0 .173.006.345.007.517.003.979.014 1.957.037 2.932l.009.277c.393 15.051 3.21 29.663 8.422 43.634H131.289a7.533 7.533 0 0 0-7.534 7.534 7.533 7.533 0 0 0 7.534 7.534H255.24c22.657 43.656 68.29 73.554 120.779 73.554 74.981 0 135.982-61.001 135.982-135.981-.001-33.114-11.905-63.498-31.652-87.108zM410.937 89.87c0 8.176-6.651 14.826-14.826 14.826-7.153 0-13.14-5.092-14.525-11.842a14.827 14.827 0 0 1-.301-2.984V30.96c0-8.176 6.652-14.826 14.826-14.826 8.176 0 14.826 6.651 14.826 14.826v58.91zm-53.822 115.631h33.473v33.472h-33.473v-33.472zm18.903 290.368c-63.479 0-115.688-49.171-120.543-111.425l-.032-.429c-.062-.831-.114-1.663-.159-2.499-.019-.361-.034-.722-.05-1.083a123.5 123.5 0 0 1-.077-2.027c-.016-.593-.023-1.187-.031-1.782-.007-.485-.017-.969-.018-1.456a119.184 119.184 0 0 1 .154-6.389c.008-.155.02-.307.028-.461.046-.855.098-1.708.163-2.557.018-.243.042-.485.062-.727.062-.757.127-1.515.202-2.268.029-.289.064-.578.095-.867.076-.703.154-1.406.241-2.106.04-.32.086-.64.13-.959.088-.663.179-1.326.278-1.985.053-.35.111-.699.167-1.048.099-.624.201-1.248.31-1.868.066-.378.139-.755.208-1.132.108-.586.22-1.171.338-1.755.082-.406.169-.811.254-1.215.116-.546.234-1.093.357-1.636.099-.438.203-.876.307-1.313a109.715 109.715 0 0 1 1.104-4.275 139.043 139.043 0 0 1 .792-2.719 129.378 129.378 0 0 1 .842-2.66c.216-.654.436-1.307.663-1.957.074-.215.151-.429.227-.643a114.82 114.82 0 0 1 .932-2.534c6.114-16.039 15.68-30.744 28.284-43.161 18.267-17.996 41.246-29.547 66.014-33.43l.022-.004c.749-.118 1.503-.222 2.255-.325.242-.033.483-.07.726-.102.627-.082 1.256-.154 1.884-.226.371-.043.74-.088 1.113-.128.553-.058 1.108-.107 1.662-.159.451-.041.901-.084 1.353-.121.509-.041 1.02-.074 1.53-.108.496-.033.991-.067 1.49-.094.489-.027.98-.048 1.471-.069.517-.022 1.035-.043 1.554-.059.487-.015.974-.024 1.462-.033a124.65 124.65 0 0 1 3.422-.014c.416.004.833.008 1.248.016.723.014 1.444.038 2.166.065.326.012.653.022.979.037.861.04 1.72.089 2.578.148.185.012.37.022.553.035a120.833 120.833 0 0 1 22.391 3.746l.069.019a119.608 119.608 0 0 1 8.587 2.643c.399.14.799.278 1.196.422.488.176.973.358 1.46.539.549.207 1.099.412 1.644.627.26.101.518.208.778.311 44.54 17.847 76.082 61.454 76.082 112.293-.002 66.665-54.244 120.907-120.917 120.907zM138.822 197.967a7.533 7.533 0 0 0-7.534-7.534h-48.54a7.533 7.533 0 0 0-7.534 7.534v48.539a7.533 7.533 0 0 0 7.534 7.534h48.54a7.533 7.533 0 0 0 7.534-7.534v-48.539zm-15.068 41.006H90.282v-33.472h33.473l-.001 33.472z"/><path d="M227.765 197.967a7.533 7.533 0 0 0-7.534-7.534h-48.54a7.533 7.533 0 0 0-7.534 7.534v48.539a7.533 7.533 0 0 0 7.534 7.534h48.54a7.533 7.533 0 0 0 7.534-7.534v-48.539zm-15.067 41.006h-33.473v-33.472h33.473v33.472zM260.636 190.433a7.533 7.533 0 0 0-7.534 7.534v48.539a7.533 7.533 0 0 0 7.534 7.534h48.54a7.533 7.533 0 0 0 7.534-7.534v-48.539a7.533 7.533 0 0 0-7.534-7.534h-48.54zm41.007 48.54H268.17v-33.472h33.473v33.472zM131.288 294.64h-48.54a7.533 7.533 0 0 0-7.534 7.534v48.539a7.534 7.534 0 0 0 7.534 7.534h48.54a7.534 7.534 0 0 0 7.534-7.534v-48.539a7.533 7.533 0 0 0-7.534-7.534zm-7.534 48.539H90.282v-33.472h33.473l-.001 33.472zM220.232 294.64h-48.54a7.533 7.533 0 0 0-7.534 7.534v48.539a7.534 7.534 0 0 0 7.534 7.534h48.54a7.534 7.534 0 0 0 7.534-7.534v-48.539a7.534 7.534 0 0 0-7.534-7.534zm-7.534 48.539h-33.473v-33.472h33.473v33.472z"/><path d="M98.406 422.315H15.067V154.798h322.394c4.161 0 7.534-3.372 7.534-7.534s-3.373-7.534-7.534-7.534H15.327V73.253h39.537V89.87c0 16.483 13.41 29.894 29.894 29.894s29.894-13.411 29.894-29.894V73.253h43.777a7.533 7.533 0 0 0 7.534-7.534 7.533 7.533 0 0 0-7.534-7.534h-43.777V30.96c0-16.483-13.411-29.894-29.894-29.894S54.863 14.478 54.863 30.96v27.226H7.534A7.533 7.533 0 0 0 0 65.72v364.129a7.533 7.533 0 0 0 7.534 7.534h90.872a7.533 7.533 0 0 0 7.534-7.534 7.533 7.533 0 0 0-7.534-7.534zM69.932 30.96c0-8.176 6.651-14.826 14.826-14.826s14.826 6.651 14.826 14.826v58.91c0 8.176-6.652 14.826-14.826 14.826S69.932 98.045 69.932 89.87V30.96zM422.137 345.795h-18.441v-18.441c0-8.138-6.621-14.759-14.759-14.759h-25.836c-8.138 0-14.759 6.622-14.759 14.759v18.441H329.9c-8.138 0-14.759 6.622-14.759 14.759v25.837c0 8.138 6.621 14.759 14.759 14.759h18.442v18.441c0 8.138 6.621 14.759 14.759 14.759h25.836c8.138 0 14.759-6.622 14.759-14.759V401.15h18.441c8.138 0 14.76-6.622 14.76-14.759v-25.837c0-8.137-6.62-14.759-14.76-14.759zm-.307 40.288h-25.668a7.533 7.533 0 0 0-7.534 7.534v25.668h-25.22v-25.668a7.533 7.533 0 0 0-7.534-7.534h-25.668v-25.22h25.668a7.533 7.533 0 0 0 7.534-7.534v-25.668h25.22v25.668a7.533 7.533 0 0 0 7.534 7.534h25.668v25.22z"/></svg>