<?xml version="1.0" encoding="UTF-8"?>
<svg version="1.1" xmlns="http://www.w3.org/2000/svg" width="512" height="560">
<path d="M0 0 C20.8212374 6.62379925 41.32344372 4.57630046 61.69970703 -2.48486328 C73.81955955 -6.67626027 86.08377354 -9.03273122 98.1953125 -3.4921875 C105.48577776 0.80343934 109.73731548 5.97176572 112.4453125 13.9453125 C112.4453125 15.2653125 112.4453125 16.5853125 112.4453125 17.9453125 C113.31929688 17.96658203 113.31929688 17.96658203 114.2109375 17.98828125 C125.80046384 18.6625147 134.71588967 23.08130785 143.02734375 31.12890625 C146.89664007 35.6357926 149.30962812 40.43262539 151.4453125 45.9453125 C151.70957031 46.60917969 151.97382813 47.27304687 152.24609375 47.95703125 C156.52937248 61.38962647 152.94238381 76.5425399 146.6953125 88.6953125 C143.49661056 94.21512379 139.58273457 99.10431865 135.4453125 103.9453125 C136.48043496 106.0540736 137.54625348 108.1245535 138.69921875 110.171875 C142.96104385 117.98310071 144.64370391 124.56626532 142.1328125 133.2578125 C141.01032642 136.5274394 139.82017589 139.77255083 138.4453125 142.9453125 C139.17105469 143.21601563 139.89679688 143.48671875 140.64453125 143.765625 C163.89864884 153.56024636 188.45610168 176.68948872 204.4453125 195.9453125 C205.32949951 196.94755173 206.21648344 197.9473269 207.10546875 198.9453125 C218.30631742 211.6047393 227.93867277 225.3386266 236.4453125 239.9453125 C236.82896973 240.60047852 237.21262695 241.25564453 237.60791016 241.93066406 C248.92762985 261.37563638 257.23799177 281.656924 264.4453125 302.9453125 C264.73003418 303.77401855 265.01475586 304.60272461 265.30810547 305.45654297 C274.40498562 332.28586978 278.62655173 360.84779304 281.4453125 388.9453125 C281.5484375 389.90783936 281.6515625 390.87036621 281.7578125 391.86206055 C282.74729879 402.45398125 282.66716996 413.09805861 282.68554688 423.72680664 C282.69524089 427.10783608 282.7263418 430.48825334 282.7578125 433.86914062 C282.904256 463.80990455 277.10353486 491.99510198 255.4453125 513.9453125 C225.48706333 542.90356448 180.44110974 548.17919551 140.8203125 551.6328125 C140.12947571 551.69375092 139.43863892 551.75468933 138.72686768 551.81747437 C115.44643799 553.83340074 92.13425958 554.10845269 68.78161001 554.11256957 C66.46418754 554.11329242 64.14677059 554.11544935 61.82934952 554.11806679 C53.66764208 554.12725709 45.50595072 554.13141016 37.34423828 554.13061523 C30.6866616 554.13008369 24.02914375 554.13712388 17.37158203 554.15112305 C-160.76000396 554.51707031 -160.76000396 554.51707031 -203.76953125 512.81640625 C-224.40348692 492.00065361 -229.9724637 463.00075765 -229.97192383 434.8034668 C-229.95969727 432.62157087 -229.94558211 430.43968479 -229.9296875 428.2578125 C-229.92536713 427.13525055 -229.92104675 426.0126886 -229.91659546 424.85610962 C-229.83491969 406.72360593 -229.1238433 388.91697972 -226.5546875 370.9453125 C-226.37776367 369.6960498 -226.20083984 368.44678711 -226.01855469 367.15966797 C-216.72207192 303.45708529 -193.81584188 241.30822589 -149.17578125 193.75390625 C-146.72792672 191.13094439 -144.35716717 188.45530249 -141.9921875 185.7578125 C-128.6792222 170.99167141 -112.16044173 158.76473175 -95.5546875 147.9453125 C-94.83667969 147.47609375 -94.11867187 147.006875 -93.37890625 146.5234375 C-92.66347656 146.06453125 -91.94804687 145.605625 -91.2109375 145.1328125 C-90.55931641 144.71386719 -89.90769531 144.29492188 -89.23632812 143.86328125 C-87.5546875 142.9453125 -87.5546875 142.9453125 -85.5546875 142.9453125 C-85.83183594 142.42324219 -86.10898438 141.90117187 -86.39453125 141.36328125 C-90.23024595 133.56899978 -91.69028402 126.13381406 -89.3671875 117.6328125 C-88.34526758 114.64748161 -87.17791686 112.15060184 -85.3671875 109.5703125 C-83.17589369 106.92837291 -83.17589369 106.92837291 -83.5546875 102.9453125 C-85.36547534 100.17087419 -85.36547534 100.17087419 -87.7421875 97.3203125 C-97.90933375 84.27837284 -102.09579486 70.55117719 -100.5546875 53.9453125 C-98.08017251 41.32109195 -92.1345333 31.38198818 -81.5546875 23.9453125 C-74.45227101 20.08259476 -67.62802986 18.14178765 -59.5546875 17.9453125 C-59.5134375 16.9759375 -59.4721875 16.0065625 -59.4296875 15.0078125 C-58.55347099 8.84926219 -54.53529357 3.92591857 -50.2421875 -0.3671875 C-48.911875 -1.2025 -48.911875 -1.2025 -47.5546875 -2.0546875 C-46.72324219 -2.60962891 -46.72324219 -2.60962891 -45.875 -3.17578125 C-31.52561361 -11.24382146 -14.27129776 -4.66199953 0 0 Z " fill="#E25F05" transform="translate(229.5546875,6.0546875)"/>
<path d="M0 0 C20.8212374 6.62379925 41.32344372 4.57630046 61.69970703 -2.48486328 C73.81955955 -6.67626027 86.08377354 -9.03273122 98.1953125 -3.4921875 C105.48577776 0.80343934 109.73731548 5.97176572 112.4453125 13.9453125 C112.4453125 15.2653125 112.4453125 16.5853125 112.4453125 17.9453125 C113.31929688 17.96658203 113.31929688 17.96658203 114.2109375 17.98828125 C125.80046384 18.6625147 134.71588967 23.08130785 143.02734375 31.12890625 C146.89664007 35.6357926 149.30962812 40.43262539 151.4453125 45.9453125 C151.70957031 46.60917969 151.97382813 47.27304687 152.24609375 47.95703125 C156.52937248 61.38962647 152.94238381 76.5425399 146.6953125 88.6953125 C143.49661056 94.21512379 139.58273457 99.10431865 135.4453125 103.9453125 C136.48043496 106.0540736 137.54625348 108.1245535 138.69921875 110.171875 C142.96104385 117.98310071 144.64370391 124.56626532 142.1328125 133.2578125 C141.01032642 136.5274394 139.82017589 139.77255083 138.4453125 142.9453125 C139.17105469 143.21601563 139.89679688 143.48671875 140.64453125 143.765625 C163.89864884 153.56024636 188.45610168 176.68948872 204.4453125 195.9453125 C205.32949951 196.94755173 206.21648344 197.9473269 207.10546875 198.9453125 C218.30631742 211.6047393 227.93867277 225.3386266 236.4453125 239.9453125 C236.82896973 240.60047852 237.21262695 241.25564453 237.60791016 241.93066406 C248.92762985 261.37563638 257.23799177 281.656924 264.4453125 302.9453125 C264.73003418 303.77401855 265.01475586 304.60272461 265.30810547 305.45654297 C274.40498562 332.28586978 278.62655173 360.84779304 281.4453125 388.9453125 C281.5484375 389.90783936 281.6515625 390.87036621 281.7578125 391.86206055 C282.74729879 402.45398125 282.66716996 413.09805861 282.68554688 423.72680664 C282.69524089 427.10783608 282.7263418 430.48825334 282.7578125 433.86914062 C282.904256 463.80990455 277.10353486 491.99510198 255.4453125 513.9453125 C225.48706333 542.90356448 180.44110974 548.17919551 140.8203125 551.6328125 C140.12947571 551.69375092 139.43863892 551.75468933 138.72686768 551.81747437 C115.44643799 553.83340074 92.13425958 554.10845269 68.78161001 554.11256957 C66.46418754 554.11329242 64.14677059 554.11544935 61.82934952 554.11806679 C53.66764208 554.12725709 45.50595072 554.13141016 37.34423828 554.13061523 C30.6866616 554.13008369 24.02914375 554.13712388 17.37158203 554.15112305 C-160.76000396 554.51707031 -160.76000396 554.51707031 -203.76953125 512.81640625 C-224.40348692 492.00065361 -229.9724637 463.00075765 -229.97192383 434.8034668 C-229.95969727 432.62157087 -229.94558211 430.43968479 -229.9296875 428.2578125 C-229.92536713 427.13525055 -229.92104675 426.0126886 -229.91659546 424.85610962 C-229.83491969 406.72360593 -229.1238433 388.91697972 -226.5546875 370.9453125 C-226.37776367 369.6960498 -226.20083984 368.44678711 -226.01855469 367.15966797 C-216.72207192 303.45708529 -193.81584188 241.30822589 -149.17578125 193.75390625 C-146.72792672 191.13094439 -144.35716717 188.45530249 -141.9921875 185.7578125 C-128.6792222 170.99167141 -112.16044173 158.76473175 -95.5546875 147.9453125 C-94.83667969 147.47609375 -94.11867187 147.006875 -93.37890625 146.5234375 C-92.66347656 146.06453125 -91.94804687 145.605625 -91.2109375 145.1328125 C-90.55931641 144.71386719 -89.90769531 144.29492188 -89.23632812 143.86328125 C-87.5546875 142.9453125 -87.5546875 142.9453125 -85.5546875 142.9453125 C-85.83183594 142.42324219 -86.10898438 141.90117187 -86.39453125 141.36328125 C-90.23024595 133.56899978 -91.69028402 126.13381406 -89.3671875 117.6328125 C-88.34526758 114.64748161 -87.17791686 112.15060184 -85.3671875 109.5703125 C-83.17589369 106.92837291 -83.17589369 106.92837291 -83.5546875 102.9453125 C-85.36547534 100.17087419 -85.36547534 100.17087419 -87.7421875 97.3203125 C-97.90933375 84.27837284 -102.09579486 70.55117719 -100.5546875 53.9453125 C-98.08017251 41.32109195 -92.1345333 31.38198818 -81.5546875 23.9453125 C-74.45227101 20.08259476 -67.62802986 18.14178765 -59.5546875 17.9453125 C-59.5134375 16.9759375 -59.4721875 16.0065625 -59.4296875 15.0078125 C-58.55347099 8.84926219 -54.53529357 3.92591857 -50.2421875 -0.3671875 C-48.911875 -1.2025 -48.911875 -1.2025 -47.5546875 -2.0546875 C-46.72324219 -2.60962891 -46.72324219 -2.60962891 -45.875 -3.17578125 C-31.52561361 -11.24382146 -14.27129776 -4.66199953 0 0 Z M-83.6171875 153.7578125 C-84.58664307 154.37197021 -84.58664307 154.37197021 -85.57568359 154.99853516 C-87.587061 156.28838171 -89.57336635 157.60982821 -91.5546875 158.9453125 C-92.46758545 159.55656982 -92.46758545 159.55656982 -93.39892578 160.18017578 C-102.28577404 166.18822011 -110.4942552 172.87934912 -118.5546875 179.9453125 C-119.38226563 180.66074219 -120.20984375 181.37617188 -121.0625 182.11328125 C-132.47901448 192.15453903 -143.2502125 202.91036539 -152.5546875 214.9453125 C-153.69744141 216.34523437 -153.69744141 216.34523437 -154.86328125 217.7734375 C-192.0256971 264.15213248 -210.02515032 323.68174993 -216.5546875 381.9453125 C-216.67183105 382.93466797 -216.78897461 383.92402344 -216.90966797 384.94335938 C-218.59028424 399.57695721 -218.78000859 414.23246014 -218.8671875 428.9453125 C-218.87681519 429.85951965 -218.88644287 430.77372681 -218.8963623 431.71563721 C-219.14608303 459.36320058 -214.03425062 485.14782514 -194.5546875 505.9453125 C-143.08248281 554.71304542 -44.40898177 543.30099479 20.83725178 543.14590877 C26.74163228 543.13253369 32.64597565 543.13021057 38.55036926 543.1308586 C45.78582154 543.13154408 53.02125284 543.12456497 60.25669861 543.115412 C62.27403689 543.11332903 64.29137654 543.11273359 66.30871582 543.11217308 C90.59590844 543.09800036 114.93025656 542.83609021 139.1328125 540.6328125 C139.85514069 540.56873199 140.57746887 540.50465149 141.32168579 540.43862915 C176.75683249 537.26610138 215.11755315 532.35580042 243.4453125 508.9453125 C244.27804687 508.30207031 245.11078125 507.65882813 245.96875 506.99609375 C258.68986772 496.46204517 266.59357083 478.92672728 269.4453125 462.9453125 C269.62046387 462.00196045 269.79561523 461.0586084 269.97607422 460.08666992 C271.71358015 449.59468883 271.75825105 439.24186252 271.6953125 428.6328125 C271.69221069 427.70401276 271.68910889 426.77521301 271.68591309 425.81826782 C271.62840289 411.11256399 271.16670461 396.56175476 269.4453125 381.9453125 C269.2599292 380.28894775 269.2599292 380.28894775 269.07080078 378.59912109 C262.49049471 321.14706698 243.95551246 265.11560416 208.4453125 218.9453125 C207.75824219 218.04425781 207.07117188 217.14320313 206.36328125 216.21484375 C192.6287114 198.62004856 176.47572739 182.11539979 158.4453125 168.9453125 C157.29426233 168.08725098 156.14322073 167.22917799 154.9921875 166.37109375 C151.52895936 163.81689016 148.01114357 161.35396282 144.4453125 158.9453125 C143.79820312 158.50815918 143.15109375 158.07100586 142.484375 157.62060547 C140.5081354 156.30615622 138.51339729 155.02694236 136.5078125 153.7578125 C135.90525635 153.35868652 135.3027002 152.95956055 134.68188477 152.54833984 C130.0982718 149.73282783 127.60237476 150.09358203 122.4453125 150.9453125 C120.10461675 151.08434245 117.76165588 151.18880404 115.41796875 151.26171875 C114.13212891 151.30361328 112.84628906 151.34550781 111.52148438 151.38867188 C110.18359625 151.4284695 108.84570559 151.46818201 107.5078125 151.5078125 C106.14256688 151.55107904 104.77733232 151.59469571 103.41210938 151.63867188 C100.08993598 151.74432403 96.76769304 151.84642645 93.4453125 151.9453125 C98.54519051 165.23278758 108.21369979 173.28351304 120.2890625 179.96557617 C127.1084523 183.78579982 133.6004949 188.12729354 136.8203125 195.515625 C138.85238045 203.41528915 138.46239245 211.85668673 134.65234375 219.11328125 C132.88358788 221.79789777 130.88972188 223.86756453 128.4453125 225.9453125 C127.8059375 226.5021875 127.1665625 227.0590625 126.5078125 227.6328125 C119.82995809 231.88235621 112.06303407 232.05196658 104.4453125 230.9453125 C90.16916877 226.26787498 78.18945673 216.06071163 67.4453125 205.9453125 C66.83042969 205.39488281 66.21554687 204.84445313 65.58203125 204.27734375 C59.57183427 198.68164311 54.12245368 191.29959487 50.4453125 183.9453125 C49.7853125 183.9453125 49.1253125 183.9453125 48.4453125 183.9453125 C48.44144531 185.79382813 48.44144531 185.79382813 48.4375 187.6796875 C48.26675852 197.72599399 47.90391987 206.69713268 41.4453125 214.9453125 C34.70625322 221.07063602 27.35544522 223.51691063 18.32421875 223.3203125 C10.95773796 222.36077091 5.30019443 218.58643488 0.69921875 212.88671875 C0.28542969 212.24605469 -0.12835938 211.60539062 -0.5546875 210.9453125 C-1.09351563 210.14609375 -1.63234375 209.346875 -2.1875 208.5234375 C-4.25729936 203.10647688 -4.04088213 197.883529 -3.9921875 192.1328125 C-3.98678955 190.92898926 -3.9813916 189.72516602 -3.97583008 188.48486328 C-3.78085155 176.97881793 -1.61918786 167.10675429 2.01831055 156.21728516 C2.42015816 155.01369858 2.42015816 155.01369858 2.8301239 153.78579712 C3.03313614 153.17843719 3.23614838 152.57107727 3.4453125 151.9453125 C2.09680458 151.9298513 2.09680458 151.9298513 0.72105408 151.91407776 C-7.76804245 151.81593501 -16.25707221 151.71339733 -24.74605656 151.60597324 C-29.10989529 151.55090461 -33.4737409 151.49751116 -37.83764648 151.44799805 C-42.05224073 151.40011653 -46.26675834 151.34776675 -50.4812603 151.29237175 C-52.08591226 151.27205548 -53.69058514 151.25332544 -55.29527473 151.23623848 C-57.54987232 151.21195516 -59.80432827 151.1819359 -62.05883789 151.15063477 C-63.34013077 151.13509048 -64.62142365 151.1195462 -65.94154358 151.10353088 C-69.5546875 150.9453125 -69.5546875 150.9453125 -73.30613708 150.33750916 C-77.66608564 149.81113369 -80.11190863 151.43564728 -83.6171875 153.7578125 Z " fill="#020100" transform="translate(229.5546875,6.0546875)"/>
<path d="M0 0 C44.55 0 89.1 0 135 0 C132.62956891 10.07433212 130.04362673 20.10821313 127 30 C117.76 30.33 108.52 30.66 99 31 C100.65 34.3 102.3 37.6 104 41 C105.53473445 45.45803815 106 48.22231818 106 53 C115.57 53 125.14 53 135 53 C133.2984375 59.868125 133.2984375 59.868125 131.5625 66.875 C131.20615479 68.31858887 130.84980957 69.76217773 130.48266602 71.24951172 C130.06005493 72.94744873 130.06005493 72.94744873 129.62890625 74.6796875 C129.34088135 75.84226074 129.05285645 77.00483398 128.75610352 78.20263672 C128 81 128 81 127 83 C120.07 83 113.14 83 106 83 C105.34 86.3 104.68 89.6 104 93 C101.5505224 100.54368103 98.2549531 107.05804616 93 113 C92.37609375 113.72832031 91.7521875 114.45664062 91.109375 115.20703125 C82.584693 124.47367631 71.07491901 130.60113391 59 134 C58.34 134 57.68 134 57 134 C62.51149231 141.13890145 68.08518076 148.18949431 74 155 C78.4719952 160.15112134 82.73867333 165.42206554 86.91918945 170.81152344 C90.5196706 175.43561352 94.26647465 179.91644046 98.07299805 184.37158203 C101.56235513 188.46107579 104.9438914 192.62358458 108.2734375 196.84375 C109.80367572 198.75481673 111.38572373 200.59776615 113 202.4375 C115 205 115 205 115 208 C107.47510416 208.25451777 99.95132524 208.42906483 92.4230957 208.54931641 C89.86505664 208.59946452 87.30730222 208.66760358 84.75024414 208.75439453 C81.06325019 208.87636164 77.38005616 208.93254987 73.69140625 208.9765625 C72.55667374 209.02817535 71.42194122 209.07978821 70.25282288 209.13296509 C65.30174725 209.13642627 62.22703588 208.99456638 58.29667664 205.80883789 C56.02066385 203.29859355 53.98302818 200.74491907 52 198 C51.19949219 197.04609375 50.39898437 196.0921875 49.57421875 195.109375 C48.95160156 194.33078125 48.32898438 193.5521875 47.6875 192.75 C44.19567292 188.43549115 40.62423581 184.20290489 37 180 C32.7001015 175.01074306 28.49514122 169.95778266 24.34375 164.84375 C21.10531128 160.91444435 17.77854814 157.06373398 14.45458984 153.20678711 C10.60441022 148.72970505 6.84480883 144.1903419 3.1328125 139.59765625 C1.20318506 137.0977332 1.20318506 137.0977332 -0.57763672 135.63598633 C-3.55060302 132.854471 -4.86319365 130.90904405 -5.47900391 126.81713867 C-5.59015359 123.04845396 -5.523332 119.32975253 -5.375 115.5625 C-5.34792969 114.25861328 -5.32085937 112.95472656 -5.29296875 111.61132812 C-5.22251848 108.40584103 -5.12404217 105.20378663 -5 102 C-3.3142688 101.98598145 -3.3142688 101.98598145 -1.59448242 101.97167969 C2.62351365 101.93144126 6.84080599 101.8655931 11.05834961 101.79248047 C12.87466305 101.76446535 14.691094 101.74315526 16.50756836 101.72900391 C32.92055545 102.06131531 32.92055545 102.06131531 47.18286133 95.04589844 C50.77041699 91.25349108 52.6089153 87.7821694 55 83 C33.88 83 12.76 83 -9 83 C-7.64038769 76.20193846 -6.20999063 69.61195284 -4.4375 62.9375 C-4.21642578 62.08478516 -3.99535156 61.23207031 -3.76757812 60.35351562 C-3.55423828 59.54462891 -3.34089844 58.73574219 -3.12109375 57.90234375 C-2.9295874 57.17523193 -2.73808105 56.44812012 -2.54077148 55.69897461 C-2 54 -2 54 -1 53 C0.71865409 52.9064081 2.44115744 52.88255389 4.16235352 52.88647461 C5.26341934 52.88655014 6.36448517 52.88662567 7.49891663 52.88670349 C8.6968132 52.89186478 9.89470978 52.89702606 11.12890625 52.90234375 C12.34827377 52.9037587 13.5676413 52.90517365 14.82395935 52.90663147 C18.7368307 52.91225033 22.64964581 52.92480604 26.5625 52.9375 C29.20768147 52.94251257 31.85286383 52.9470759 34.49804688 52.95117188 C40.99871726 52.96222589 47.49935461 52.97898236 54 53 C53.09397251 51.71083502 52.1762919 50.42985574 51.25390625 49.15234375 C50.7441626 48.43812256 50.23441895 47.72390137 49.70922852 46.98803711 C45.89454998 42.55110991 40.62885737 40.89256942 35 40 C31.63062851 39.80304405 28.26096377 39.74380051 24.88671875 39.68359375 C23.91716751 39.66281265 22.94761627 39.64203156 21.94868469 39.62062073 C18.86169293 39.55541059 15.77461848 39.4963732 12.6875 39.4375 C10.59048636 39.39428763 8.49348097 39.35067248 6.39648438 39.30664062 C1.26440693 39.19975849 -3.86775341 39.09841104 -9 39 C-6.61337058 25.87353818 -3.23582883 12.94331533 0 0 Z " fill="#FEDA07" transform="translate(193,252)"/>
<path d="M0 0 C26.92154521 8.33540472 53.53445074 8.62519938 80.03125 -1.796875 C87.0810419 -4.50440377 94.8260299 -5.30574911 102.15625 -3.1484375 C106.38138869 -1.20928803 109.14636614 1.16083118 111.6875 5.125 C118.66056962 26.04420885 104.12782993 52.96214572 95.23046875 71.15234375 C87.7466954 86.0658046 87.7466954 86.0658046 83.6875 90.125 C80.85912169 90.26815184 78.05435666 90.34612185 75.22387695 90.38134766 C73.89212181 90.40325165 73.89212181 90.40325165 72.53346252 90.42559814 C64.33299528 90.55168985 56.13154441 90.62035245 47.93031025 90.67344093 C42.41677078 90.70921843 36.90468846 90.76254796 31.3918457 90.85888672 C26.06724443 90.95166557 20.74393337 91.00035535 15.41856956 91.01783371 C13.3886571 91.03193797 11.35879066 91.0616005 9.32933998 91.10713577 C-6.54687505 91.44592441 -6.54687505 91.44592441 -10.81706238 88.25125122 C-12.41794645 85.91135334 -13.39385789 83.79803908 -14.3125 81.125 C-14.86413818 80.16029785 -15.41577637 79.1955957 -15.98413086 78.20166016 C-17.41719977 75.38963103 -18.84584516 72.57661678 -20.25 69.75 C-20.77142578 68.70070313 -21.29285156 67.65140625 -21.83007812 66.5703125 C-42.32768872 24.60750224 -42.32768872 24.60750224 -36.6171875 5.83984375 C-29.19978267 -8.83913808 -12.27118614 -4.01385031 0 0 Z " fill="#FE9300" transform="translate(218.3125,14.875)"/>
<path d="M0 0 C1.38030414 -0.00514248 2.76060171 -0.01242624 4.1408844 -0.02168274 C7.87866447 -0.04016382 11.61572928 -0.02727973 15.35347939 -0.00759244 C19.27045107 0.00882298 23.18737848 -0.00002285 27.10437012 -0.00511169 C33.68151237 -0.00962944 40.25836993 0.0062172 46.83544922 0.03417969 C54.43254394 0.06623035 62.02912529 0.06621493 69.62625647 0.04896492 C76.94337221 0.03308469 84.26030027 0.03984295 91.57740784 0.05690193 C94.68735265 0.06376303 97.7971466 0.06274972 100.90708923 0.05535698 C104.57135785 0.04767885 108.23504434 0.05986912 111.89921379 0.08720589 C113.88038193 0.09734397 115.86162007 0.08792304 117.8427887 0.07788086 C128.71769041 0.1945591 128.71769041 0.1945591 133.47070312 4.63110352 C135.98696494 8.27362417 135.60865251 11.0852358 135.08007812 15.32641602 C129.70113962 44.49681331 129.70113962 44.49681331 122.72070312 51.31860352 C121.97820312 51.75172852 121.23570312 52.18485352 120.47070312 52.63110352 C121.06238281 52.7174707 121.6540625 52.80383789 122.26367188 52.89282227 C126.26349721 53.60404733 129.09594935 54.38636636 132.53320312 56.63110352 C135.84014329 61.75152699 134.92074389 67.12187421 133.87133789 72.97290039 C133.05608868 76.62932202 132.15620338 80.25365354 131.22070312 83.88110352 C130.92035156 85.12118164 130.62 86.36125977 130.31054688 87.63891602 C126.77409551 101.6342342 126.77409551 101.6342342 121.20898438 104.99829102 C117.66993992 105.81615864 114.26510685 105.84584466 110.65820312 105.75610352 C109.96533203 105.74708008 109.27246094 105.73805664 108.55859375 105.72875977 C106.86247917 105.70536508 105.16654442 105.66949992 103.47070312 105.63110352 C103.26445312 106.88922852 103.05820312 108.14735352 102.84570312 109.44360352 C98.84438641 127.1716595 84.70105579 139.52066089 70.04248047 148.78759766 C68.52130295 149.73983736 66.99639667 150.68611636 65.47070312 151.63110352 C71.28337851 159.13024178 77.17209958 166.52960751 83.34521484 173.7355957 C87.11855166 178.16208711 90.70149666 182.71890433 94.26220703 187.31713867 C97.65595866 191.66980977 101.21777734 195.84776615 104.84570312 200.00610352 C115.0293158 211.78660741 115.0293158 211.78660741 116.03320312 218.25610352 C115.20584482 223.22025333 113.28047404 226.32207556 109.19419861 229.27772522 C106.07491424 230.82778168 104.0508469 231.01676375 100.58227539 231.03515625 C99.42079483 231.04784042 98.25931427 231.0605246 97.06263733 231.07359314 C95.8167131 231.0706575 94.57078888 231.06772186 93.28710938 231.06469727 C91.9988475 231.06993912 90.71058563 231.07518097 89.38328552 231.08058167 C86.66061588 231.08949865 83.93823978 231.08710632 81.21557617 231.07714844 C77.73745593 231.06566312 74.26035166 231.08586877 70.78236485 231.11506557 C67.45056022 231.1378926 64.11899023 231.13095819 60.78710938 231.12719727 C59.54320938 231.13843124 58.29930939 231.14966522 57.01771545 231.16123962 C46.3036398 231.07493927 46.3036398 231.07493927 41.47070312 226.63110352 C39.59967185 224.63988921 37.86846214 222.68511174 36.15820312 220.56860352 C35.44664062 219.7081543 35.44664062 219.7081543 34.72070312 218.83032227 C33.2958895 217.10373846 31.88211289 215.36865174 30.47070312 213.63110352 C29.70371094 212.69395508 28.93671875 211.75680664 28.14648438 210.79125977 C26.68992999 209.01044552 25.23551841 207.22787658 23.78320312 205.44360352 C20.74637542 201.75016442 17.65109357 198.10811865 14.55444336 194.46484375 C11.67524993 191.07156243 8.83866075 187.64842566 6.03320312 184.19360352 C2.57795398 179.94717031 -0.95649388 175.77833739 -4.52929688 171.63110352 C-26.67433622 145.90310947 -26.67433622 145.90310947 -26.73242188 136.39282227 C-26.73812195 135.67504105 -26.74382202 134.95725983 -26.74969482 134.21772766 C-26.7591464 132.69708734 -26.76567943 131.17642653 -26.76953125 129.65576172 C-26.77921612 127.33792962 -26.81022768 125.02099226 -26.84179688 122.70336914 C-26.84832925 121.22485877 -26.8535788 119.74634207 -26.85742188 118.26782227 C-26.86976868 117.57806808 -26.88211548 116.8883139 -26.89483643 116.17765808 C-26.87481143 111.81479644 -26.10625253 109.15421863 -23.52929688 105.63110352 C-24.70492187 104.48641602 -24.70492187 104.48641602 -25.90429688 103.31860352 C-30.4887164 98.62503115 -30.4887164 98.62503115 -30.61352539 95.56811523 C-29.84901674 88.76768188 -28.30486858 82.34075019 -26.46679688 75.75610352 C-25.90893167 73.73910803 -25.35536073 71.72091859 -24.80664062 69.70141602 C-24.43913696 68.38294678 -24.43913696 68.38294678 -24.06420898 67.0378418 C-23.3846556 64.39122772 -23.3846556 64.39122772 -23.52929688 60.63110352 C-25.93074262 58.47660386 -25.93074262 58.47660386 -28.52929688 56.63110352 C-32.20987204 49.26995318 -28.70718784 38.7220908 -26.77929688 31.25610352 C-26.5034375 30.16136719 -26.22757813 29.06663086 -25.94335938 27.9387207 C-25.39668975 25.79099879 -24.84293823 23.64506385 -24.28125 21.5012207 C-23.65297408 19.10316494 -23.04880809 16.70094472 -22.45117188 14.29516602 C-21.99484375 12.60520508 -21.99484375 12.60520508 -21.52929688 10.88110352 C-21.28179687 9.95813477 -21.03429687 9.03516602 -20.77929688 8.08422852 C-16.23255855 -0.83874545 -8.97843766 -0.08153884 0 0 Z M-10.52929688 11.63110352 C-16.64721129 30.93192915 -16.64721129 30.93192915 -19.52929688 50.63110352 C-18.24877441 50.64568604 -16.96825195 50.66026855 -15.64892578 50.67529297 C-10.85894037 50.73364226 -6.06940717 50.81087085 -1.27978516 50.89355469 C0.78589491 50.92663268 2.85166164 50.95471687 4.91748047 50.97753906 C7.90173989 51.01140198 10.88521723 51.06373145 13.86914062 51.11938477 C14.77997406 51.12577469 15.6908075 51.13216461 16.62924194 51.13874817 C25.78377745 51.34462754 33.92643802 52.92722218 40.47070312 59.63110352 C41.46070313 61.28110352 42.45070312 62.93110352 43.47070312 64.63110352 C25.32070312 64.63110352 7.17070312 64.63110352 -11.52929688 64.63110352 C-13.9592122 71.01618107 -13.9592122 71.01618107 -15.91601562 77.46313477 C-16.13193359 78.28104492 -16.34785156 79.09895508 -16.5703125 79.94165039 C-16.78365234 80.76729492 -16.99699219 81.59293945 -17.21679688 82.44360352 C-17.44173828 83.28858398 -17.66667969 84.13356445 -17.8984375 85.00415039 C-19.14898995 89.75325072 -19.14898995 89.75325072 -19.52929688 94.63110352 C1.59070313 94.63110352 22.71070313 94.63110352 44.47070312 94.63110352 C39.15996017 104.19044083 35.92910753 108.85680236 25.92605591 112.02212524 C21.97038062 113.00321453 18.12055771 113.1106597 14.06054688 113.14282227 C13.20763565 113.16077347 12.35472443 113.17872467 11.47596741 113.19721985 C8.78676101 113.25083518 6.09772696 113.28505988 3.40820312 113.31860352 C1.57028875 113.35181981 -0.267603 113.38631338 -2.10546875 113.42211914 C-6.57995268 113.50653267 -11.05438984 113.57357399 -15.52929688 113.63110352 C-15.79326279 118.08829208 -15.95136371 122.54344948 -16.09179688 127.00610352 C-16.16720703 128.2577832 -16.24261719 129.50946289 -16.3203125 130.79907227 C-16.48518065 137.79680932 -16.05807989 141.91523345 -11.26367188 147.21704102 C-9.70486537 148.70884659 -8.12894761 150.18318117 -6.52929688 151.63110352 C-5.07347891 153.36589465 -3.63119214 155.11237734 -2.21679688 156.88110352 C1.27503186 161.19561442 4.84651148 165.4281588 8.47070312 169.63110352 C12.79260387 174.64686874 17.02549987 179.72286239 21.20117188 184.86157227 C25.08800528 189.6047132 29.06656923 194.27003146 33.03710938 198.94311523 C35.47659573 201.81549409 37.91109279 204.69209188 40.34570312 207.56860352 C40.78575684 208.08793457 41.22581055 208.60726562 41.67919922 209.14233398 C43.79159256 211.63719185 45.67186591 213.9666523 47.35864258 216.78027344 C49.19479153 218.9631779 50.17717234 219.57030723 53.00402832 220.1558075 C56.27569623 220.32691753 59.49644615 220.30482222 62.77148438 220.21704102 C63.96299606 220.20855133 65.15450775 220.20006165 66.38212585 220.1913147 C70.18340913 220.15775925 73.98256226 220.08246693 77.78320312 220.00610352 C80.36194851 219.9760071 82.94072718 219.94863075 85.51953125 219.92407227 C91.83731389 219.85796037 98.15385633 219.75758672 104.47070312 219.63110352 C103.61844892 215.39246871 101.40937026 212.91812944 98.59570312 209.75610352 C94.58666464 205.14281939 90.71238724 200.46383085 86.97070312 195.63110352 C82.9702664 190.4807725 78.83579216 185.47565436 74.59350586 180.5234375 C70.82443279 176.10201201 67.2469654 171.54939703 63.68798828 166.95825195 C59.70688706 161.85661847 55.52289773 156.94554185 51.26586914 152.07275391 C47.56776142 147.82522012 47.56776142 147.82522012 46.47070312 145.63110352 C48.20707031 145.24631836 48.20707031 145.24631836 49.97851562 144.85375977 C61.76802232 141.88952612 72.1345406 135.36863683 80.47070312 126.63110352 C81.12554687 125.98399414 81.78039062 125.33688477 82.45507812 124.67016602 C89.59633538 117.19320863 95.47070312 105.13692787 95.47070312 94.63110352 C102.40070313 94.63110352 109.33070313 94.63110352 116.47070312 94.63110352 C117.41945313 91.35172852 118.36820313 88.07235352 119.34570312 84.69360352 C119.6407373 83.67919189 119.93577148 82.66478027 120.23974609 81.61962891 C120.47838379 80.78939209 120.71702148 79.95915527 120.96289062 79.10375977 C121.20378418 78.27110596 121.44467773 77.43845215 121.69287109 76.58056641 C122.73566476 72.62639496 123.58359572 68.62308685 124.47070312 64.63110352 C114.90070313 64.63110352 105.33070313 64.63110352 95.47070312 64.63110352 C94.97570312 60.17610352 94.97570312 60.17610352 94.47070312 55.63110352 C93.38666487 52.19519962 93.38666487 52.19519962 91.97070312 49.13110352 C91.30554688 47.59969727 91.30554688 47.59969727 90.62695312 46.03735352 C89.68323729 43.73327511 89.68323729 43.73327511 88.47070312 42.63110352 C97.71070313 42.30110352 106.95070313 41.97110352 116.47070312 41.63110352 C119.51432985 31.73931665 122.10027204 21.70543563 124.47070312 11.63110352 C79.92070312 11.63110352 35.37070312 11.63110352 -10.52929688 11.63110352 Z " fill="#050200" transform="translate(203.529296875,240.368896484375)"/>
<path d="M0 0 C0.76718987 -0.00623996 1.53437973 -0.01247993 2.32481778 -0.01890898 C4.88589819 -0.03481582 7.44602376 -0.02224417 10.0071106 -0.00964355 C11.84721429 -0.0150658 13.68731364 -0.02218904 15.52740479 -0.03088379 C20.51927136 -0.04911037 25.51080703 -0.04205163 30.50267935 -0.02936745 C35.73065673 -0.01923333 40.95860597 -0.02863456 46.18658447 -0.03491211 C54.96795735 -0.04218859 63.74919565 -0.0326021 72.5305481 -0.0135498 C82.67463286 0.00820535 92.81839587 0.00117738 102.9624728 -0.02085543 C111.67774894 -0.03902555 120.39292838 -0.04155944 129.10821736 -0.03110075 C134.31080402 -0.02487296 139.51323962 -0.02401031 144.7158165 -0.0372467 C149.60953906 -0.04882751 154.50284828 -0.04073865 159.39652634 -0.01766968 C161.18955297 -0.01239392 162.98261455 -0.01387691 164.77562714 -0.02272034 C167.22962645 -0.03370504 169.68231399 -0.01987817 172.13623047 0 C172.8403333 -0.00892289 173.54443613 -0.01784577 174.26987541 -0.02703905 C180.90643126 0.07673124 186.10375561 2.36430772 190.69509888 7.07043457 C192.82618684 11.95417782 192.96158538 16.25984843 192.19509888 21.50793457 C189.87425997 26.4174015 186.89350235 28.86508262 182.19509888 31.50793457 C178.48041684 32.79078491 174.70418721 32.6561359 170.82052612 32.65510559 C170.07546287 32.65878228 169.33039961 32.66245897 168.56275868 32.66624707 C166.0648729 32.67726467 163.56702874 32.68112446 161.06912231 32.68493652 C159.27857837 32.69120258 157.48803573 32.69784951 155.69749451 32.70484924 C149.81649681 32.7258735 143.93549891 32.73624949 138.05447388 32.74621582 C136.02891272 32.75026386 134.00335171 32.7543808 131.97779083 32.7585659 C122.46198361 32.77761327 112.94618413 32.79184576 103.43036151 32.80017787 C92.44969225 32.8099517 81.4692245 32.83627697 70.48862624 32.87667876 C61.99846786 32.90684438 53.50836723 32.92164714 45.01815629 32.92495888 C39.94852394 32.92730868 34.87910698 32.93626017 29.80953217 32.96142006 C25.03900014 32.98471381 20.26882514 32.98892874 15.49825096 32.97865868 C13.75035858 32.97816354 12.00244853 32.98447748 10.25461006 32.99821472 C-6.21553946 33.12038883 -6.21553946 33.12038883 -12.80490112 28.50793457 C-17.53320797 23.41591182 -18.16222167 20.06768104 -18.08224487 13.26965332 C-17.69100082 9.37374421 -16.44986633 7.36171282 -13.80490112 4.50793457 C-9.22908039 0.84744069 -5.72673635 -0.07211628 0 0 Z " fill="#FEB706" transform="translate(168.80490112304688,115.4920654296875)"/>
<path d="M0 0 C-9.1318287 10.43637565 -20.62709375 17.23577454 -34 21 C-34.66 21 -35.32 21 -36 21 C-30.48850769 28.13890145 -24.91481924 35.18949431 -19 42 C-14.5280048 47.15112134 -10.26132667 52.42206554 -6.08081055 57.81152344 C-2.4803294 62.43561352 1.26647465 66.91644046 5.07299805 71.37158203 C8.56235513 75.46107579 11.9438914 79.62358458 15.2734375 83.84375 C16.80367572 85.75481673 18.38572373 87.59776615 20 89.4375 C22 92 22 92 22 95 C14.47510416 95.25451777 6.95132524 95.42906483 -0.5769043 95.54931641 C-3.13494336 95.59946452 -5.69269778 95.66760358 -8.24975586 95.75439453 C-11.93674981 95.87636164 -15.61994384 95.93254987 -19.30859375 95.9765625 C-20.44332626 96.02817535 -21.57805878 96.07978821 -22.74717712 96.13296509 C-27.69825275 96.13642627 -30.77296412 95.99456638 -34.70332336 92.80883789 C-36.97933615 90.29859355 -39.01697182 87.74491907 -41 85 C-42.20076172 83.56914062 -42.20076172 83.56914062 -43.42578125 82.109375 C-44.04839844 81.33078125 -44.67101562 80.5521875 -45.3125 79.75 C-48.80432708 75.43549115 -52.37576419 71.20290489 -56 67 C-60.2998985 62.01074306 -64.50485878 56.95778266 -68.65625 51.84375 C-71.39302849 48.52312543 -74.19133901 45.25980905 -77 42 C-91.11420536 25.5927681 -91.11420536 25.5927681 -95 19 C-93.94200195 18.83395264 -92.88400391 18.66790527 -91.79394531 18.49682617 C-87.81211723 17.87042081 -83.83145188 17.2368693 -79.85107422 16.60131836 C-78.1388111 16.32890556 -76.42625158 16.0583483 -74.71337891 15.78979492 C-65.84856106 14.39867652 -57.10207984 12.94522173 -48.41992188 10.63647461 C-45.34691411 9.82822892 -42.25151008 9.2493545 -39.125 8.6875 C-27.82131059 6.48533046 -16.37782328 3.65335471 -5.53515625 -0.24609375 C-3 -1 -3 -1 0 0 Z " fill="#FCB605" transform="translate(286,365)"/>
<path d="M0 0 C11.22 0 22.44 0 34 0 C36.64 4.95 39.28 9.9 42 15 C50.97402382 25.87440533 60.26989931 33.12614557 72.67578125 39.62109375 C76.25514603 41.74464966 78.17261151 44.34522302 80 48 C80.68448516 53.05585632 81.14684613 57.93244641 78.61328125 62.5 C75.64408399 66.00378158 72.65785472 69.22369088 68 70 C53.59464946 70.46468873 39.32324713 58.51627775 29.1640625 49.4765625 C14.9250723 35.87573432 4.78297592 19.13190368 0 0 Z " fill="#F98800" transform="translate(277,158)"/>
<path d="M0 0 C9.39431108 1.15929796 17.44971304 4.32340053 23.4375 11.9375 C28.08165707 18.46704621 29.56257811 24.31770875 29.5 32.1875 C29.49427979 33.02466553 29.48855957 33.86183105 29.48266602 34.72436523 C29.15079427 46.31976277 24.08911048 55.05659502 17 64 C16.60754593 64.57884949 16.21509186 65.15769897 15.81074524 65.75408936 C12.20647635 70.65240641 12.20647635 70.65240641 8.99617004 71.57731628 C6.66233152 71.71263534 4.43317057 71.6338436 2.1015625 71.46484375 C0.84912247 71.41669273 0.84912247 71.41669273 -0.42861938 71.36756897 C-3.0802125 71.25790215 -5.7260789 71.09851474 -8.375 70.9375 C-10.17823585 70.85412179 -11.98162581 70.77400812 -13.78515625 70.69726562 C-18.19278509 70.50259919 -22.59596171 70.26332967 -27 70 C-25.80374943 66.89640557 -24.51541695 63.96427449 -22.8984375 61.05859375 C-12.43957255 41.94800213 -3.85319254 21.56902031 0 0 Z " fill="#ED5600" transform="translate(342,35)"/>
<path d="M0 0 C0.27972656 1.15113281 0.55945313 2.30226562 0.84765625 3.48828125 C6.02667458 24.283828 13.08674999 46.73213988 25.33203125 64.54296875 C27 67 27 67 27 69 C21.6110053 69.27367932 16.22611642 69.47228109 10.83178711 69.60424805 C9.00099191 69.6592865 7.17067416 69.73415181 5.34155273 69.82983398 C-9.76453945 70.59975474 -9.76453945 70.59975474 -15.12158203 66.76611328 C-17.47735197 63.95744065 -19.27105967 61.22704714 -21 58 C-21.43046631 57.28416748 -21.86093262 56.56833496 -22.30444336 55.83081055 C-23.29690517 54.10458336 -24.15528739 52.30313653 -25 50.5 C-25.8353125 48.75203125 -25.8353125 48.75203125 -26.6875 46.96875 C-30.50526946 38.33331908 -30.49763574 27.3789131 -27.9765625 18.32421875 C-24.19748798 10.10838548 -18.41906951 5.00319023 -10.375 1.0625 C-6.72786443 -0.08567231 -3.79867142 -0.07669527 0 0 Z " fill="#EE5800" transform="translate(170,36)"/>
<path d="M0 0 C0.45503906 0.61617188 0.91007813 1.23234375 1.37890625 1.8671875 C4.11501679 5.46698594 6.73532157 8.35908932 11 10 C13.52100634 10.19098643 15.93041222 10.27424984 18.45050049 10.26069641 C19.20373085 10.26452196 19.95696121 10.26834751 20.73301673 10.27228898 C23.25860545 10.28261293 25.78396657 10.27862796 28.30957031 10.2746582 C30.11981924 10.27900512 31.93006633 10.28418819 33.74031067 10.29014587 C38.65989623 10.30355199 43.57940504 10.30411256 48.49900532 10.30158257 C52.60670585 10.30051357 56.7143908 10.30539463 60.822088 10.310188 C70.51568117 10.32128959 80.20923558 10.32171747 89.90283203 10.31567383 C99.89799443 10.30963784 109.89301592 10.32193405 119.88815427 10.3432439 C128.47173753 10.36087041 137.05527599 10.36685944 145.63887668 10.36360615 C150.76434835 10.36179422 155.8897196 10.36442025 161.01517487 10.37832069 C165.83820572 10.3909108 170.66101748 10.38894367 175.48404503 10.37590981 C177.25127677 10.37354674 179.01852399 10.37626902 180.78573799 10.38453293 C183.20459945 10.39502559 185.62272922 10.38687988 188.04156494 10.3742218 C189.08225628 10.38528323 189.08225628 10.38528323 190.14397168 10.39656812 C195.77232662 10.33491496 201.71515777 9.26543805 205.83984375 5.17578125 C206.20207031 4.56089844 206.56429687 3.94601563 206.9375 3.3125 C207.618125 2.219375 208.29875 1.12625 209 0 C209.33 0 209.66 0 210 0 C210.62054002 9.68731919 210.62054002 9.68731919 208.375 14.4375 C203.68503529 19.49772508 199.4827371 21.8595308 192.67217636 22.13422108 C191.32328575 22.1436094 189.97435048 22.14752888 188.62542725 22.14717102 C187.88036399 22.15084771 187.13530074 22.1545244 186.36765981 22.1583125 C183.86977402 22.1693301 181.37192986 22.17318989 178.87402344 22.17700195 C177.0834795 22.18326801 175.29293685 22.18991494 173.50239563 22.19691467 C167.62139794 22.21793893 161.74040003 22.22831492 155.859375 22.23828125 C153.83381385 22.24232929 151.80825283 22.24644623 149.78269196 22.25063133 C140.26688473 22.2696787 130.75108525 22.28391119 121.23526263 22.2922433 C110.25459337 22.30201713 99.27412562 22.3283424 88.29352736 22.36874419 C79.80336898 22.39890981 71.31326835 22.41371257 62.82305741 22.41702431 C57.75342506 22.41937411 52.6840081 22.4283256 47.61443329 22.45348549 C42.84390126 22.47677924 38.07372626 22.48099417 33.30315208 22.47072411 C31.5552597 22.47022897 29.80734966 22.47654291 28.05951118 22.49028015 C11.58936167 22.61245426 11.58936167 22.61245426 5 18 C0.97821331 13.6688451 -0.13033052 11.20842467 -0.0625 5.375 C-0.05347656 4.37210938 -0.04445312 3.36921875 -0.03515625 2.3359375 C-0.02355469 1.56507812 -0.01195312 0.79421875 0 0 Z " fill="#F5970D" transform="translate(151,126)"/>
<path d="M0 0 C2.15478516 -0.34057617 2.15478516 -0.34057617 4.7890625 -0.29296875 C5.73007813 -0.28330078 6.67109375 -0.27363281 7.640625 -0.26367188 C9.11789063 -0.2259668 9.11789063 -0.2259668 10.625 -0.1875 C11.61757813 -0.17396484 12.61015625 -0.16042969 13.6328125 -0.14648438 C16.08908072 -0.11105743 18.54427285 -0.06166196 21 0 C21.19335938 0.67546875 21.38671875 1.3509375 21.5859375 2.046875 C21.97652344 3.38492188 21.97652344 3.38492188 22.375 4.75 C22.63023437 5.63171875 22.88546875 6.5134375 23.1484375 7.421875 C23.92139332 9.76201647 24.90006159 11.80399619 26 14 C26.046875 16.04296875 26.046875 16.04296875 25.75 18.1875 C25.64171875 18.98671875 25.5334375 19.7859375 25.421875 20.609375 C25.04242327 22.75960149 24.54871331 24.82578513 24 26.9375 C22.66776482 32.38228727 22.6520322 37.94667729 22.60546875 43.52905273 C22.45092911 48.79760462 21.44574487 51.79416435 18 56 C13.00822181 60.39751888 10.08964152 61.36229362 3.5390625 61.27734375 C-0.22460402 60.86623556 -2.21790187 59.5171364 -5 57 C-11.79076562 48.0068239 -10.89473574 36.9324407 -9.50390625 26.15625 C-7.71364828 17.17461677 -5.11964677 7.67947015 0 0 Z " fill="#FCA629" transform="translate(245,158)"/>
<path d="M0 0 C3.39422349 2.59164847 5.24735481 5.19518944 6.5859375 9.2109375 C8.80680173 37.28120511 -6.03772816 67.56798041 -21.4140625 90.2109375 C-23.49745471 92.29432971 -28.00304014 91.4315097 -30.87768555 91.46728516 C-32.20944069 91.48918915 -32.20944069 91.48918915 -33.56809998 91.51153564 C-41.76856722 91.63762735 -49.97001809 91.70628995 -58.17125225 91.75937843 C-63.68479172 91.79515593 -69.19687404 91.84848546 -74.7097168 91.94482422 C-80.03431807 92.03760307 -85.35762913 92.08629285 -90.68299294 92.10377121 C-92.7129054 92.11787547 -94.74277184 92.147538 -96.77222252 92.19307327 C-112.67896192 92.53251329 -112.67896192 92.53251329 -116.98770142 89.25067139 C-118.5975658 86.90857042 -119.5842536 84.91868035 -120.4140625 82.2109375 C-120.7440625 81.2209375 -121.0740625 80.2309375 -121.4140625 79.2109375 C-117.15819298 80.53019362 -113.30877583 82.16850481 -109.3515625 84.2109375 C-107.38002097 85.22588809 -105.40114337 86.22675747 -103.4140625 87.2109375 C-102.73956055 87.56293213 -102.06505859 87.91492676 -101.37011719 88.27758789 C-97.00322274 89.65639839 -92.76967862 89.5562928 -88.21484375 89.58203125 C-86.72950386 89.59557396 -86.72950386 89.59557396 -85.2141571 89.60939026 C-83.1204225 89.62387724 -81.02664278 89.63277563 -78.93286133 89.63647461 C-75.75457841 89.64833297 -72.57826198 89.69750272 -69.40039062 89.74804688 C-67.3593844 89.75751653 -65.31836634 89.76474897 -63.27734375 89.76953125 C-62.33844803 89.78906357 -61.39955231 89.80859589 -60.4322052 89.82872009 C-49.82696096 89.75742423 -40.97121685 84.42844446 -33.4140625 77.2109375 C-27.35457335 70.0169057 -22.83042223 61.48833251 -18.4140625 53.2109375 C-18.09373047 52.61120117 -17.77339844 52.01146484 -17.44335938 51.39355469 C-11.43833122 39.93221246 -4.42663966 23.96565974 -8.078125 10.8203125 C-10.45193631 6.22708412 -12.60403785 3.52344935 -17.4140625 1.2109375 C-20.11581322 0.64035116 -22.64575029 0.40185558 -25.4140625 0.2109375 C-19.52283597 -5.68028903 -6.63048255 -3.94471747 0 0 Z " fill="#F76F00" transform="translate(324.4140625,13.7890625)"/>
<path d="M0 0 C0.74886475 0.00523682 1.49772949 0.01047363 2.26928711 0.01586914 C3.07817383 0.0190918 3.88706055 0.02231445 4.72045898 0.02563477 C5.5705957 0.03401367 6.42073242 0.04239258 7.29663086 0.05102539 C8.15063477 0.05553711 9.00463867 0.06004883 9.88452148 0.06469727 C12.00108749 0.07652166 14.11761771 0.0944577 16.23413086 0.11352539 C16.68401367 0.98493164 17.13389648 1.85633789 17.59741211 2.75415039 C26.41681658 19.29900723 38.24986911 30.01245683 54.90991211 38.73461914 C58.48927689 40.85817505 60.40674237 43.45874841 62.23413086 47.11352539 C62.304091 48.82055274 62.3185324 50.53020542 62.29663086 52.23852539 C62.28760742 53.14860352 62.27858398 54.05868164 62.26928711 54.99633789 C62.25768555 55.69500977 62.24608398 56.39368164 62.23413086 57.11352539 C53.03939091 59.15680093 46.75852415 55.7782212 38.92163086 51.05102539 C25.3523899 42.06884043 14.29526204 31.08545071 5.35913086 17.48852539 C4.8942627 16.7838916 4.42939453 16.07925781 3.95043945 15.35327148 C1.01814102 10.75457717 -1.01292358 6.27949078 -2.76586914 1.11352539 C-1.76586914 0.11352539 -1.76586914 0.11352539 0 0 Z " fill="#FDA327" transform="translate(294.765869140625,158.886474609375)"/>
<path d="M0 0 C0.66 0 1.32 0 2 0 C3.12109375 1.73046875 3.12109375 1.73046875 4.4375 4.1875 C12.76761028 18.4966432 24.84477452 29.65713647 38.7265625 38.46875 C39.47679687 38.9740625 40.22703125 39.479375 41 40 C41 40.33 41 40.66 41 41 C16.25 41 -8.5 41 -34 41 C-34 40.67 -34 40.34 -34 40 C-32.53240234 39.97873047 -32.53240234 39.97873047 -31.03515625 39.95703125 C-20.99632077 39.59180321 -13.77961945 38.23536829 -6.625 30.75 C0.26707461 21.75784725 -0.33899419 10.83612475 0 0 Z " fill="#F86500" transform="translate(278,200)"/>
<path d="M0 0 C9.45104803 1.35014972 17.36614624 4.21713658 23.4375 11.9375 C28.08165707 18.46704621 29.56257811 24.31770875 29.5 32.1875 C29.49427979 33.02466553 29.48855957 33.86183105 29.48266602 34.72436523 C29.17916752 45.32841864 25.08568738 53.36195285 18.73046875 61.72265625 C16.97918508 63.93536035 16.97918508 63.93536035 15.67578125 66.24609375 C14.23166825 68.47080837 13.33436108 69.7161014 11 71 C6.49679965 70.97306698 2.34744224 70.12878693 -2 69 C-1.154375 68.01 -0.30875 67.02 0.5625 66 C1.11035156 65.35417969 1.65820312 64.70835938 2.22265625 64.04296875 C3.36725816 62.72730545 4.54026247 61.43556471 5.74609375 60.17578125 C13.28676008 52.16487292 18.32215636 42.54342004 18.23046875 31.44921875 C17.84870932 27.39221597 16.46352197 23.77634166 15 20 C14.67 19.01 14.34 18.02 14 17 C10.97795603 15.12855075 7.58709613 14.06682005 4.25 12.875 C3.26515625 12.52179687 2.2803125 12.16859375 1.265625 11.8046875 C0.51796875 11.53914063 -0.2296875 11.27359375 -1 11 C-0.67 7.37 -0.34 3.74 0 0 Z " fill="#FB9B00" transform="translate(342,35)"/>
<path d="M0 0 C0.66 0 1.32 0 2 0 C3.04174694 1.54287884 4.0062759 3.13800326 4.9375 4.75 C14.40448405 20.01869684 28.4602253 32.25887673 44 41 C44.99 41.60328125 45.98 42.2065625 47 42.828125 C55.30685357 47.55596187 63.37940916 48.80301393 72.7109375 46.26171875 C77.39885591 44.36941946 80.70025186 41.88205663 84 38 C84.556875 37.360625 85.11375 36.72125 85.6875 36.0625 C87.31965527 33.49768458 88.1417102 30.90498085 89 28 C89.33 28 89.66 28 90 28 C90.70095576 36.19339396 89.77055349 42.18658176 85 49 C78.95647163 56.11555114 72.10356014 58.35192887 63.0625 59.5 C61.5465625 59.2525 61.5465625 59.2525 60 59 C58.3125 56.625 58.3125 56.625 57 54 C53.80938579 51.87292386 51.38291511 51.91763474 47.625 52 C39.05597098 51.39537265 33.31786722 46.31708826 27 41 C26.4524707 40.54206055 25.90494141 40.08412109 25.34082031 39.61230469 C16.15995713 31.81995681 7.52020772 22.82809975 2 12 C2 11.34 2 10.68 2 10 C1.34 10 0.68 10 0 10 C0 6.7 0 3.4 0 0 Z " fill="#D94700" transform="translate(278,190)"/>
<path d="M0 0 C0.33 3.3 0.66 6.6 1 10 C0.26394531 10.23074219 -0.47210938 10.46148437 -1.23046875 10.69921875 C-9.15290116 13.28546303 -9.15290116 13.28546303 -15 19 C-18.73854109 26.82804727 -19.12695157 34.15556042 -16.5 42.375 C-12.85418795 51.55371696 -6.58787225 58.83065884 0.53125 65.5390625 C1.0159375 66.02117187 1.500625 66.50328125 2 67 C2 67.33 2 67.66 2 68 C-2.78827034 69.05573528 -7.11405801 69.60039118 -12 69 C-20.24122245 63.20239583 -25.86657554 50.40027337 -29 41 C-30.22305079 29.90099287 -30.09802917 19.14889415 -23 10 C-16.45706457 3.39779885 -9.4519328 -0.57868976 0 0 Z " fill="#FB9B00" transform="translate(170,36)"/>
<path d="M0 0 C2.15478516 -0.34057617 2.15478516 -0.34057617 4.7890625 -0.29296875 C5.73007813 -0.28330078 6.67109375 -0.27363281 7.640625 -0.26367188 C9.11789063 -0.2259668 9.11789063 -0.2259668 10.625 -0.1875 C11.61757813 -0.17396484 12.61015625 -0.16042969 13.6328125 -0.14648438 C16.08908072 -0.11105743 18.54427285 -0.06166196 21 0 C20.24847656 0.51691406 19.49695313 1.03382813 18.72265625 1.56640625 C15.60788055 4.3504884 14.0794042 7.1840284 12.4375 10.9375 C12.14085449 11.59556641 11.84420898 12.25363281 11.53857422 12.93164062 C6.54904695 24.27865949 3.80969736 35.29088156 3.875 47.6875 C3.87113281 48.43322266 3.86726562 49.17894531 3.86328125 49.94726562 C3.86956515 53.46939146 4.05292355 56.61281445 5 60 C3.375 60.75 3.375 60.75 1 61 C-4.70334429 58.02950818 -7.9708437 54.08746891 -10 48 C-10.89101493 31.60189829 -9.3669888 14.0504832 0 0 Z " fill="#F88400" transform="translate(245,158)"/>
<path d="M0 0 C0.33 0 0.66 0 1 0 C1.43426988 9.11966742 0.26879653 15.66260377 -5.6875 22.8125 C-11.6727251 29.00336575 -16.20235807 31.18706096 -24.875 31.5625 C-33.70519612 31.26973414 -39.86288462 28.60381249 -45.9375 22.1875 C-51.03727871 15.77669327 -52.43320952 10.08657769 -52 2 C-50.27774009 4.23893788 -48.74554235 6.43352045 -47.3125 8.875 C-43.37682089 14.19348528 -38.29855661 17.91324416 -32 20 C-23.20821536 21.16143392 -15.71840291 19.19794933 -8.41796875 14.25 C-5.61069936 11.63774286 -4.30611495 9.21308314 -2.6875 5.75 C-1.91986328 4.13351563 -1.91986328 4.13351563 -1.13671875 2.484375 C-0.76160156 1.66453125 -0.38648438 0.8446875 0 0 Z " fill="#DA4800" transform="translate(277,209)"/>
<path d="M0 0 C4.25586952 1.31925612 8.10528667 2.95756731 12.0625 5 C18.4677679 8.29743521 23.2720955 10.29616895 30.54418945 10.31884766 C31.6571917 10.33391609 31.6571917 10.33391609 32.79267883 10.34928894 C35.23287213 10.3800547 37.67295603 10.39713747 40.11328125 10.4140625 C41.81008338 10.43277948 43.50687626 10.4523533 45.20365906 10.4727478 C49.66039568 10.52401902 54.11716247 10.56367151 58.57403564 10.60089111 C63.12560456 10.64096221 67.67704855 10.69204038 72.22851562 10.7421875 C81.15225593 10.83888744 90.07606686 10.92331118 99 11 C99 11.33 99 11.66 99 12 C87.1086545 12.20860442 75.2177447 12.36848176 63.32494164 12.46630955 C57.8023958 12.51326504 52.28110232 12.57694111 46.75927734 12.67895508 C41.42939601 12.77680578 36.10071834 12.83056998 30.77000809 12.85389519 C28.73728099 12.87051483 26.70461926 12.90297161 24.67240524 12.95157051 C8.73328756 13.317554 8.73328756 13.317554 4.4241333 10.04196167 C2.81359981 7.6988144 1.82836942 5.70944517 1 3 C0.67 2.01 0.34 1.02 0 0 Z " fill="#E06000" transform="translate(203,93)"/>
</svg>
