<svg xmlns="http://www.w3.org/2000/svg" viewBox="0 0 64 64"><g data-name="21-pass"><path d="M58 19v10l-5 5h-5l-3.72-3.72A3.981 3.981 0 0 0 46 27v-2a2.006 2.006 0 0 0-2-2h-3v-5h-9l-3 3-2-2-1-1-3 3v-2A10 10 0 0 1 33 9h15a10 10 0 0 1 10 10z" style="fill:#7e8596"/><path d="m24 19-.952-.952c-.03.314-.048.631-.048.952v2l1.5-1.5zM27.5 19.5 29 21l3-3h-3l-1.5 1.5zM48 9h-3a10 10 0 0 1 10 10v10l-5 5h3l5-5V19A10 10 0 0 0 48 9z" style="fill:#707789"/><path d="M42 41c0 5-5 5-5 5H27l-6-11 6-8a30.836 30.836 0 0 1 10.25 5.18C39.89 34.34 42 37.25 42 41z" style="fill:#96e8ff"/><path d="M37.25 32.18A30.836 30.836 0 0 0 27 27l-.6.8a28.653 28.653 0 0 1 7.85 4.38C36.89 34.34 39 37.25 39 41c0 5-5 5-5 5h3s5 0 5-5c0-3.75-2.11-6.66-4.75-8.82zM53 63H28v-5l9-7v2s2.54-.63 6.18-1.9A9.874 9.874 0 0 0 43 53a10 10 0 0 0 10 10z" style="fill:#19cffc"/><path d="M53 34v9a10.012 10.012 0 0 0-9.82 8.1C39.54 52.37 37 53 37 53v-4l-3-3h3s5 0 5-5a9.282 9.282 0 0 0-.51-3.07 9.868 9.868 0 0 0-.88-1.96 14.8 14.8 0 0 0-3.36-3.79 20.451 20.451 0 0 0-2.34-1.67c-.6-.38-1.21-.73-1.8-1.04A33.244 33.244 0 0 0 27 27v-8l2 2 3-3h9v5h3a2.006 2.006 0 0 1 2 2v2a3.981 3.981 0 0 1-1.72 3.28l1.01 1.01 1.42 1.42L48 34z" style="fill:#ffb491"/><path d="M44 25v2a3.981 3.981 0 0 1-1.72 3.28l1.01 1.01 1.42 1.42L46 34h2l-1.29-1.29-1.42-1.42-1.01-1.01A3.981 3.981 0 0 0 46 27v-2a2.006 2.006 0 0 0-2-2h-2a2.006 2.006 0 0 1 2 2zM39 18h2v5h-2zM27 19v2l1-1-1-1zM51 34v9a10.012 10.012 0 0 0-9.82 8.1A89.894 89.894 0 0 1 37 52.446V53s2.54-.63 6.18-1.9A10.012 10.012 0 0 1 53 43v-9z" style="fill:#ff915e"/><path style="fill:#cdd2e1" d="M14 27h3v6h-3z"/><path style="fill:#00a0aa" d="M11 33 9 43H5l2-10h4z"/><path style="fill:#00c8c8" d="M7 33 5 43H1l2-10h4z"/><path d="M14 27v6H3v-4a2.006 2.006 0 0 1 2-2z" style="fill:#64e1dc"/><path d="M21 11a10 10 0 0 1-7.84 9.76L11 24l-2.16-3.24A10 10 0 1 1 21 11zm-10 7a2.989 2.989 0 0 0 2-5.22V6a2 2 0 0 0-4 0v6.78A2.989 2.989 0 0 0 11 18z" style="fill:#cdd2e1"/><path d="M14 15a3 3 0 1 1-5-2.22V6a2 2 0 0 1 4 0v6.78A2.97 2.97 0 0 1 14 15z" style="fill:#19cffc"/><path style="fill:#9196aa" d="M32 11h2v2h-2zM36 11h12v2H36z"/><path style="fill:#96e8ff" d="M10 14h2v2h-2zM11 10h2v2h-2zM11 7h2v2h-2z"/><path d="m42.42 23-7.51 7.51c-.6-.38-1.21-.73-1.8-1.04L41 21.58V23zM46.71 32.71l-5.22 5.22a9.868 9.868 0 0 0-.88-1.96l4.68-4.68z" style="fill:#afb4c8"/><path style="fill:#64e1dc" d="m59 50-8 8-4-4 2-2 2 2 6-6 2 2z"/><path d="M53 43a10 10 0 1 1-10 10 10 10 0 0 1 10-10zm-2 15 8-8-2-2-6 6-2-2-2 2z" style="fill:#00c8c8"/><path style="fill:#00a0aa" d="m47 52-2 2 4 4 1-1-3-3 1-1-1-1zM53 43a10.007 10.007 0 0 0-1 .051 10 10 0 0 1 0 19.9A10 10 0 1 0 53 43z"/><path transform="rotate(-45 53 51)" style="fill:#00a0aa" d="M49.464 50.293h7.071v1.414h-7.071z"/><path d="M54 42.051v-7.637l4.707-4.707A1 1 0 0 0 59 29V19A11.013 11.013 0 0 0 48 8H33a11.013 11.013 0 0 0-11 11v2a1 1 0 0 0 1.707.707L26 19.414v7.253L20.2 34.4a1 1 0 0 0-.078 1.079l6 11A1 1 0 0 0 27 47h6.586L36 49.414v1.1l-8.614 6.7A1 1 0 0 0 27 58v5a1 1 0 0 0 1 1h25a11 11 0 0 0 1-21.949zM25.293 17.293l-1.283 1.283A9.011 9.011 0 0 1 33 10h15a9.01 9.01 0 0 1 9 9v9.586L52.586 33h-4.172l-2.679-2.68A4.978 4.978 0 0 0 47 27v-2a3 3 0 0 0-3-3h-2v-4a1 1 0 0 0-1-1h-9a1 1 0 0 0-.707.293L29 19.586l-2.293-2.293a1 1 0 0 0-1.414 0zm10.355 12.474L41.414 24H44a1 1 0 0 1 1 1v2a3 3 0 0 1-3 3h-2v2h2a4.978 4.978 0 0 0 2.116-.47l.47.47-3.245 3.245a17.787 17.787 0 0 0-5.693-5.478zm-7.355-8.06a1 1 0 0 0 1.414 0L32.414 19H40v3.586l-6.136 6.136A34.552 34.552 0 0 0 28 26.252v-4.838zm-6.107 13.379 5.2-6.927C30.155 29.043 41 33.015 41 41a3.85 3.85 0 0 1-4 4h-9.406zM37 47a5.785 5.785 0 0 0 6-6 10.656 10.656 0 0 0-.721-3.865L46 33.414l1.293 1.293A1 1 0 0 0 48 35h4v7.051a11.011 11.011 0 0 0-9.659 8.28A85.772 85.772 0 0 1 38 51.693V49a1 1 0 0 0-.293-.707L36.414 47zm-8 15v-3.511l7.009-5.451A.986.986 0 0 0 37 54a1.038 1.038 0 0 0 .241-.029c.09-.023 1.961-.492 4.782-1.423-.006.151-.023.3-.023.452a10.99 10.99 0 0 0 4.7 9zm24 0a9 9 0 1 1 9-9 9.01 9.01 0 0 1-9 9zM17 26H5a3 3 0 0 0-3 3v3.9L.02 42.8A1 1 0 0 0 1 44h8a1 1 0 0 0 .98-.8l1.84-9.2H17a1 1 0 0 0 1-1v-6a1 1 0 0 0-1-1zM4 29a1 1 0 0 1 1-1h8v4H4zm.18 13H2.22l1.6-8h1.96zm4 0H6.22l1.6-8h1.96zM16 32h-1v-4h1z"/><path d="M11 0a11 11 0 0 0-2.775 21.641l1.943 2.914a1 1 0 0 0 1.664 0l1.943-2.914A11 11 0 0 0 11 0zm1.945 19.783a1 1 0 0 0-.617.422L11 22.2l-1.328-2a1 1 0 0 0-.617-.422 9 9 0 1 1 3.89 0zM59.707 49.293l-2-2a1 1 0 0 0-1.414 0L51 52.586l-1.293-1.293a1 1 0 0 0-1.414 0l-2 2a1 1 0 0 0 0 1.414l4 4a1 1 0 0 0 1.414 0l8-8a1 1 0 0 0 0-1.414zM51 56.586 48.414 54l.586-.586 1.293 1.293a1 1 0 0 0 1.414 0L57 49.414l.586.586zM32 11h2v2h-2zM36 11h12v2H36z"/><path d="M14 6a3 3 0 0 0-6 0v6.37a4 4 0 1 0 6 0zm-3 11a2 2 0 0 1-2-2 1.974 1.974 0 0 1 .67-1.479 1 1 0 0 0 .33-.743V6a1 1 0 0 1 2 0v1h-1v2h1v1h-1v2h1v.778a1 1 0 0 0 .33.743A1.974 1.974 0 0 1 13 15a2 2 0 0 1-2 2z"/><path d="M10 14h2v2h-2z"/></g></svg>